# xmcd
#
# Track frame offsets:
#	150
#	20691
#	40752
#	56973
#	77674
#	99255
#	121837
#	141778
#	157719
#	173901
#	195843
#	216682
#	236515
#	256933
#	278667
#
# Disc length: 3983 seconds
#
# Revision: 0
# Processed by: cddbd v1.4PL0 Copyright (c) Steve Scherf et al.
# Submitted via: EasyCDDAExtractor 4.6.9.1
#
DISCID=c40f8d0f
DTITLE=光良/Michale - 第一次/Fist Time
DYEAR=2001
DGENRE=pop
TTITLE0=单恋
TTITLE1=第一次
TTITLE2=Stop Now
TTITLE3=我爱你 在那里
TTITLE4=如果你还爱我
TTITLE5=朋友首日封
TTITLE6=回到一个人
TTITLE7=电梯
TTITLE8=我想去个地方
TTITLE9=你好吗
TTITLE10=身边
TTITLE11=雨过天晴
TTITLE12=掌心
TTITLE13=注定
TTITLE14=如果我们可以重来一次
EXTD=
EXTT0=
EXTT1=
EXTT2=
EXTT3=
EXTT4=
EXTT5=
EXTT6=
EXTT7=
EXTT8=
EXTT9=
EXTT10=
EXTT11=
EXTT12=
EXTT13=
EXTT14=
PLAYORDER=
